<svg width="81" height="80" viewBox="0 0 81 80" fill="none" xmlns="http://www.w3.org/2000/svg">
<path fill-rule="evenodd" clip-rule="evenodd" d="M36.2788 0.0461774C49.2341 0.849842 55.5994 14.6138 63.5137 24.757C71.143 34.5349 82.6878 43.9567 79.9286 55.9889C77.1667 68.0332 63.2642 73.1041 51.472 77.2685C41.5351 80.7777 30.8588 81.2438 21.3804 76.6652C11.9851 72.1267 5.7409 63.5931 2.71988 53.7184C-0.636094 42.7489 -1.72099 30.8422 4.37753 21.0885C11.4407 9.79205 22.8442 -0.787216 36.2788 0.0461774Z" fill="url(#paint0_linear)"/>
<path d="M44.0795 44.3138V46.3267H43.7753C42.3961 46.3467 41.2941 46.7206 40.4692 47.4483C39.6444 48.176 39.1543 49.2075 38.9988 50.5428C39.7898 49.7216 40.8005 49.311 42.031 49.311C43.3358 49.311 44.3635 49.765 45.1139 50.6729C45.8711 51.5809 46.2497 52.7526 46.2497 54.188C46.2497 55.6701 45.8069 56.8719 44.9212 57.7932C44.0423 58.7078 42.8862 59.1652 41.4529 59.1652C39.9791 59.1652 38.7824 58.6277 37.863 57.5528C36.9502 56.478 36.4939 55.0693 36.4939 53.3268V52.4956C36.4939 49.9385 37.1227 47.9357 38.3802 46.4869C39.6444 45.0382 41.4597 44.3138 43.826 44.3138H44.0795ZM41.4327 51.2738C40.8918 51.2738 40.3949 51.424 39.9419 51.7245C39.4957 52.0249 39.1678 52.4255 38.9582 52.9262V53.6672C38.9582 54.7488 39.1881 55.61 39.6478 56.251C40.1075 56.8852 40.7025 57.2023 41.4327 57.2023C42.1628 57.2023 42.7409 56.9319 43.1668 56.3912C43.5927 55.8504 43.8057 55.1394 43.8057 54.2581C43.8057 53.3768 43.5893 52.6591 43.1567 52.105C42.724 51.5509 42.1493 51.2738 41.4327 51.2738Z" fill="white"/>
<path d="M57.8411 52.826C57.8411 54.9224 57.4422 56.5047 56.6444 57.5729C55.8534 58.6344 54.6466 59.1652 53.024 59.1652C51.4285 59.1652 50.2251 58.6478 49.4138 57.6129C48.6092 56.5714 48.1968 55.0325 48.1765 52.9963V50.4726C48.1765 48.3763 48.5721 46.804 49.3631 45.7559C50.1608 44.7077 51.3744 44.1836 53.0037 44.1836C54.6196 44.1836 55.823 44.6943 56.614 45.7158C57.4118 46.7373 57.8208 48.2661 57.8411 50.3024V52.826ZM55.3768 50.1021C55.3768 48.7335 55.1875 47.732 54.8089 47.0978C54.4303 46.4569 53.8286 46.1364 53.0037 46.1364C52.1992 46.1364 51.6076 46.4402 51.229 47.0477C50.8504 47.6486 50.651 48.5899 50.6307 49.8718V53.1765C50.6307 54.5385 50.8234 55.5533 51.2088 56.2209C51.5941 56.8886 52.1992 57.2224 53.024 57.2224C53.815 57.2224 54.3999 56.9153 54.7785 56.301C55.1571 55.6801 55.3565 54.7121 55.3768 53.3969V50.1021Z" fill="white"/>
<defs>
<linearGradient id="paint0_linear" x1="40.1729" y1="0" x2="40.1729" y2="80" gradientUnits="userSpaceOnUse">
<stop stop-color="#15A1DD"/>
<stop offset="1" stop-color="#34C789"/>
</linearGradient>
</defs>
</svg>
