<svg width="140" height="66" viewBox="0 0 140 66" fill="none" xmlns="http://www.w3.org/2000/svg">
<path d="M28.9297 35.2383C28.9297 40.9622 27.8542 45.2826 25.7031 48.1992C23.5703 51.0977 20.3164 52.5469 15.9414 52.5469C11.6393 52.5469 8.39453 51.1341 6.20703 48.3086C4.03776 45.4648 2.92578 41.263 2.87109 35.7031V28.8125C2.87109 23.0885 3.9375 18.7956 6.07031 15.9336C8.22135 13.0716 11.4935 11.6406 15.8867 11.6406C20.2435 11.6406 23.4883 13.0352 25.6211 15.8242C27.7721 18.6133 28.875 22.7878 28.9297 28.3477V35.2383ZM22.2852 27.8008C22.2852 24.0638 21.7747 21.3294 20.7539 19.5977C19.7331 17.8477 18.1107 16.9727 15.8867 16.9727C13.7174 16.9727 12.1224 17.8021 11.1016 19.4609C10.0807 21.1016 9.54297 23.6719 9.48828 27.1719V36.1953C9.48828 39.9141 10.0078 42.6849 11.0469 44.5078C12.0859 46.3307 13.7174 47.2422 15.9414 47.2422C18.0742 47.2422 19.651 46.4036 20.6719 44.7266C21.6927 43.0312 22.2305 40.388 22.2852 36.7969V27.8008ZM60.7578 35.2383C60.7578 40.9622 59.6823 45.2826 57.5312 48.1992C55.3984 51.0977 52.1445 52.5469 47.7695 52.5469C43.4674 52.5469 40.2227 51.1341 38.0352 48.3086C35.8659 45.4648 34.7539 41.263 34.6992 35.7031V28.8125C34.6992 23.0885 35.7656 18.7956 37.8984 15.9336C40.0495 13.0716 43.3216 11.6406 47.7148 11.6406C52.0716 11.6406 55.3164 13.0352 57.4492 15.8242C59.6003 18.6133 60.7031 22.7878 60.7578 28.3477V35.2383ZM54.1133 27.8008C54.1133 24.0638 53.6029 21.3294 52.582 19.5977C51.5612 17.8477 49.9388 16.9727 47.7148 16.9727C45.5456 16.9727 43.9505 17.8021 42.9297 19.4609C41.9089 21.1016 41.3711 23.6719 41.3164 27.1719V36.1953C41.3164 39.9141 41.8359 42.6849 42.875 44.5078C43.9141 46.3307 45.5456 47.2422 47.7695 47.2422C49.9023 47.2422 51.4792 46.4036 52.5 44.7266C53.5208 43.0312 54.0586 40.388 54.1133 36.7969V27.8008ZM68.0039 60.9688L64.4219 58.8359C65.4792 57.1771 66.1992 55.7279 66.582 54.4883C66.9831 53.2669 67.1927 52.0182 67.2109 50.7422V45.5742H73.1992L73.1719 50.3594C73.1536 52.2917 72.6615 54.224 71.6953 56.1562C70.7474 58.1068 69.5169 59.7109 68.0039 60.9688Z" fill="#AB49CE"/>
<path d="M96.3984 19.8164C96.3984 22.2695 95.9375 24.1211 95.0156 25.3711C94.1016 26.6133 92.707 27.2344 90.832 27.2344C88.9883 27.2344 87.5977 26.6289 86.6602 25.418C85.7305 24.1992 85.2539 22.3984 85.2305 20.0156V17.0625C85.2305 14.6094 85.6875 12.7695 86.6016 11.543C87.5234 10.3164 88.9258 9.70312 90.8086 9.70312C92.6758 9.70312 94.0664 10.3008 94.9805 11.4961C95.9023 12.6914 96.375 14.4805 96.3984 16.8633V19.8164ZM93.5508 16.6289C93.5508 15.0273 93.332 13.8555 92.8945 13.1133C92.457 12.3633 91.7617 11.9883 90.8086 11.9883C89.8789 11.9883 89.1953 12.3438 88.7578 13.0547C88.3203 13.7578 88.0898 14.8594 88.0664 16.3594V20.2266C88.0664 21.8203 88.2891 23.0078 88.7344 23.7891C89.1797 24.5703 89.8789 24.9609 90.832 24.9609C91.7461 24.9609 92.4219 24.6016 92.8594 23.8828C93.2969 23.1562 93.5273 22.0234 93.5508 20.4844V16.6289ZM110.039 19.8164C110.039 22.2695 109.578 24.1211 108.656 25.3711C107.742 26.6133 106.348 27.2344 104.473 27.2344C102.629 27.2344 101.238 26.6289 100.301 25.418C99.3711 24.1992 98.8945 22.3984 98.8711 20.0156V17.0625C98.8711 14.6094 99.3281 12.7695 100.242 11.543C101.164 10.3164 102.566 9.70312 104.449 9.70312C106.316 9.70312 107.707 10.3008 108.621 11.4961C109.543 12.6914 110.016 14.4805 110.039 16.8633V19.8164ZM107.191 16.6289C107.191 15.0273 106.973 13.8555 106.535 13.1133C106.098 12.3633 105.402 11.9883 104.449 11.9883C103.52 11.9883 102.836 12.3438 102.398 13.0547C101.961 13.7578 101.73 14.8594 101.707 16.3594V20.2266C101.707 21.8203 101.93 23.0078 102.375 23.7891C102.82 24.5703 103.52 24.9609 104.473 24.9609C105.387 24.9609 106.062 24.6016 106.5 23.8828C106.938 23.1562 107.168 22.0234 107.191 20.4844V16.6289ZM86.2617 56.4648H84.0234L90.7383 37.9375H92.9766L86.2617 56.4648ZM97.6289 42.3203L97.7109 43.6445C98.6016 42.6055 99.8203 42.0859 101.367 42.0859C103.062 42.0859 104.223 42.7344 104.848 44.0312C105.77 42.7344 107.066 42.0859 108.738 42.0859C110.137 42.0859 111.176 42.4727 111.855 43.2461C112.543 44.0195 112.895 45.1602 112.91 46.668V55H110.062V46.75C110.062 45.9453 109.887 45.3555 109.535 44.9805C109.184 44.6055 108.602 44.418 107.789 44.418C107.141 44.418 106.609 44.5938 106.195 44.9453C105.789 45.2891 105.504 45.7422 105.34 46.3047L105.352 55H102.504V46.6562C102.465 45.1641 101.703 44.418 100.219 44.418C99.0781 44.418 98.2695 44.8828 97.793 45.8125V55H94.9453V42.3203H97.6289ZM121.418 55.2344C119.613 55.2344 118.148 54.668 117.023 53.5352C115.906 52.3945 115.348 50.8789 115.348 48.9883V48.6367C115.348 47.3711 115.59 46.2422 116.074 45.25C116.566 44.25 117.254 43.4727 118.137 42.918C119.02 42.3633 120.004 42.0859 121.09 42.0859C122.816 42.0859 124.148 42.6367 125.086 43.7383C126.031 44.8398 126.504 46.3984 126.504 48.4141V49.5625H118.219C118.305 50.6094 118.652 51.4375 119.262 52.0469C119.879 52.6562 120.652 52.9609 121.582 52.9609C122.887 52.9609 123.949 52.4336 124.77 51.3789L126.305 52.8438C125.797 53.6016 125.117 54.1914 124.266 54.6133C123.422 55.0273 122.473 55.2344 121.418 55.2344ZM121.078 44.3711C120.297 44.3711 119.664 44.6445 119.18 45.1914C118.703 45.7383 118.398 46.5 118.266 47.4766H123.691V47.2656C123.629 46.3125 123.375 45.5938 122.93 45.1094C122.484 44.6172 121.867 44.3711 121.078 44.3711ZM124.922 40.2461V40.375H122.637L120.879 38.5469L119.133 40.375H116.871V40.2227L120.047 36.9883H121.723L124.922 40.2461ZM135.832 51.5547C135.832 51.0469 135.621 50.6602 135.199 50.3945C134.785 50.1289 134.094 49.8945 133.125 49.6914C132.156 49.4883 131.348 49.2305 130.699 48.918C129.277 48.2305 128.566 47.2344 128.566 45.9297C128.566 44.8359 129.027 43.9219 129.949 43.1875C130.871 42.4531 132.043 42.0859 133.465 42.0859C134.98 42.0859 136.203 42.4609 137.133 43.2109C138.07 43.9609 138.539 44.9336 138.539 46.1289H135.691C135.691 45.582 135.488 45.1289 135.082 44.7695C134.676 44.4023 134.137 44.2188 133.465 44.2188C132.84 44.2188 132.328 44.3633 131.93 44.6523C131.539 44.9414 131.344 45.3281 131.344 45.8125C131.344 46.25 131.527 46.5898 131.895 46.832C132.262 47.0742 133.004 47.3203 134.121 47.5703C135.238 47.8125 136.113 48.1055 136.746 48.4492C137.387 48.7852 137.859 49.1914 138.164 49.668C138.477 50.1445 138.633 50.7227 138.633 51.4023C138.633 52.543 138.16 53.4688 137.215 54.1797C136.27 54.8828 135.031 55.2344 133.5 55.2344C132.461 55.2344 131.535 55.0469 130.723 54.6719C129.91 54.2969 129.277 53.7812 128.824 53.125C128.371 52.4688 128.145 51.7617 128.145 51.0039H130.91C130.949 51.6758 131.203 52.1953 131.672 52.5625C132.141 52.9219 132.762 53.1016 133.535 53.1016C134.285 53.1016 134.855 52.9609 135.246 52.6797C135.637 52.3906 135.832 52.0156 135.832 51.5547Z" fill="#AB49CE"/>
</svg>
