<svg width="97" height="47" viewBox="0 0 97 47" fill="none" xmlns="http://www.w3.org/2000/svg">
<path d="M20.6641 25.0273C20.6641 29.1159 19.8958 32.2018 18.3594 34.2852C16.8359 36.3555 14.5117 37.3906 11.3867 37.3906C8.3138 37.3906 5.99609 36.3815 4.43359 34.3633C2.88411 32.332 2.08984 29.3307 2.05078 25.3594V20.4375C2.05078 16.349 2.8125 13.2826 4.33594 11.2383C5.8724 9.19401 8.20964 8.17188 11.3477 8.17188C14.4596 8.17188 16.7773 9.16797 18.3008 11.1602C19.8372 13.1523 20.625 16.1341 20.6641 20.1055V25.0273ZM15.918 19.7148C15.918 17.0456 15.5534 15.0924 14.8242 13.8555C14.0951 12.6055 12.9362 11.9805 11.3477 11.9805C9.79818 11.9805 8.65885 12.5729 7.92969 13.7578C7.20052 14.9297 6.81641 16.7656 6.77734 19.2656V25.7109C6.77734 28.3672 7.14844 30.3464 7.89062 31.6484C8.63281 32.9505 9.79818 33.6016 11.3867 33.6016C12.9102 33.6016 14.0365 33.0026 14.7656 31.8047C15.4948 30.5938 15.8789 28.7057 15.918 26.1406V19.7148ZM43.3984 25.0273C43.3984 29.1159 42.6302 32.2018 41.0938 34.2852C39.5703 36.3555 37.2461 37.3906 34.1211 37.3906C31.0482 37.3906 28.7305 36.3815 27.168 34.3633C25.6185 32.332 24.8242 29.3307 24.7852 25.3594V20.4375C24.7852 16.349 25.5469 13.2826 27.0703 11.2383C28.6068 9.19401 30.944 8.17188 34.082 8.17188C37.194 8.17188 39.5117 9.16797 41.0352 11.1602C42.5716 13.1523 43.3594 16.1341 43.3984 20.1055V25.0273ZM38.6523 19.7148C38.6523 17.0456 38.2878 15.0924 37.5586 13.8555C36.8294 12.6055 35.6706 11.9805 34.082 11.9805C32.5326 11.9805 31.3932 12.5729 30.6641 13.7578C29.9349 14.9297 29.5508 16.7656 29.5117 19.2656V25.7109C29.5117 28.3672 29.8828 30.3464 30.625 31.6484C31.3672 32.9505 32.5326 33.6016 34.1211 33.6016C35.6445 33.6016 36.7708 33.0026 37.5 31.8047C38.2292 30.5938 38.6133 28.7057 38.6523 26.1406V19.7148ZM48.5742 43.4062L46.0156 41.8828C46.7708 40.6979 47.2852 39.6628 47.5586 38.7773C47.8451 37.9049 47.9948 37.013 48.0078 36.1016V32.4102H52.2852L52.2656 35.8281C52.2526 37.2083 51.901 38.5885 51.2109 39.9688C50.5339 41.362 49.6549 42.5078 48.5742 43.4062Z" fill="black"/>
<path d="M67.2656 15.2109C67.2656 16.8464 66.9583 18.0807 66.3438 18.9141C65.7344 19.7422 64.8047 20.1562 63.5547 20.1562C62.3255 20.1562 61.3984 19.7526 60.7734 18.9453C60.1536 18.1328 59.8359 16.9323 59.8203 15.3438V13.375C59.8203 11.7396 60.125 10.513 60.7344 9.69531C61.349 8.8776 62.2839 8.46875 63.5391 8.46875C64.7839 8.46875 65.7109 8.86719 66.3203 9.66406C66.9349 10.4609 67.25 11.6536 67.2656 13.2422V15.2109ZM65.3672 13.0859C65.3672 12.0182 65.2214 11.237 64.9297 10.7422C64.638 10.2422 64.1745 9.99219 63.5391 9.99219C62.9193 9.99219 62.4635 10.2292 62.1719 10.7031C61.8802 11.1719 61.7266 11.9062 61.7109 12.9062V15.4844C61.7109 16.5469 61.8594 17.3385 62.1562 17.8594C62.4531 18.3802 62.9193 18.6406 63.5547 18.6406C64.1641 18.6406 64.6146 18.401 64.9062 17.9219C65.1979 17.4375 65.3516 16.6823 65.3672 15.6562V13.0859ZM76.3594 15.2109C76.3594 16.8464 76.0521 18.0807 75.4375 18.9141C74.8281 19.7422 73.8984 20.1562 72.6484 20.1562C71.4193 20.1562 70.4922 19.7526 69.8672 18.9453C69.2474 18.1328 68.9297 16.9323 68.9141 15.3438V13.375C68.9141 11.7396 69.2188 10.513 69.8281 9.69531C70.4427 8.8776 71.3776 8.46875 72.6328 8.46875C73.8776 8.46875 74.8047 8.86719 75.4141 9.66406C76.0286 10.4609 76.3438 11.6536 76.3594 13.2422V15.2109ZM74.4609 13.0859C74.4609 12.0182 74.3151 11.237 74.0234 10.7422C73.7318 10.2422 73.2682 9.99219 72.6328 9.99219C72.013 9.99219 71.5573 10.2292 71.2656 10.7031C70.974 11.1719 70.8203 11.9062 70.8047 12.9062V15.4844C70.8047 16.5469 70.9531 17.3385 71.25 17.8594C71.5469 18.3802 72.013 18.6406 72.6484 18.6406C73.2578 18.6406 73.7083 18.401 74 17.9219C74.2917 17.4375 74.4453 16.6823 74.4609 15.6562V13.0859ZM60.5078 39.9766H59.0156L63.4922 27.625H64.9844L60.5078 39.9766ZM68.0859 30.5469L68.1406 31.4297C68.7344 30.737 69.5469 30.3906 70.5781 30.3906C71.7083 30.3906 72.4818 30.8229 72.8984 31.6875C73.513 30.8229 74.3776 30.3906 75.4922 30.3906C76.4245 30.3906 77.1172 30.6484 77.5703 31.1641C78.0286 31.6797 78.263 32.4401 78.2734 33.4453V39H76.375V33.5C76.375 32.9635 76.2578 32.5703 76.0234 32.3203C75.7891 32.0703 75.401 31.9453 74.8594 31.9453C74.4271 31.9453 74.0729 32.0625 73.7969 32.2969C73.526 32.526 73.3359 32.8281 73.2266 33.2031L73.2344 39H71.3359V33.4375C71.3099 32.4427 70.8021 31.9453 69.8125 31.9453C69.0521 31.9453 68.513 32.2552 68.1953 32.875V39H66.2969V30.5469H68.0859ZM83.9453 39.1562C82.7422 39.1562 81.7656 38.7786 81.0156 38.0234C80.2708 37.263 79.8984 36.2526 79.8984 34.9922V34.7578C79.8984 33.9141 80.0599 33.1615 80.3828 32.5C80.7109 31.8333 81.1693 31.3151 81.7578 30.9453C82.3464 30.5755 83.0026 30.3906 83.7266 30.3906C84.8776 30.3906 85.7656 30.7578 86.3906 31.4922C87.0208 32.2266 87.3359 33.2656 87.3359 34.6094V35.375H81.8125C81.8698 36.0729 82.1016 36.625 82.5078 37.0312C82.9193 37.4375 83.4349 37.6406 84.0547 37.6406C84.9245 37.6406 85.6328 37.2891 86.1797 36.5859L87.2031 37.5625C86.8646 38.0677 86.4115 38.4609 85.8438 38.7422C85.2812 39.0182 84.6484 39.1562 83.9453 39.1562ZM83.7188 31.9141C83.1979 31.9141 82.776 32.0964 82.4531 32.4609C82.1354 32.8255 81.9323 33.3333 81.8438 33.9844H85.4609V33.8438C85.4193 33.2083 85.25 32.7292 84.9531 32.4062C84.6562 32.0781 84.2448 31.9141 83.7188 31.9141ZM86.2812 29.1641V29.25H84.7578L83.5859 28.0312L82.4219 29.25H80.9141V29.1484L83.0312 26.9922H84.1484L86.2812 29.1641ZM93.5547 36.7031C93.5547 36.3646 93.4141 36.1068 93.1328 35.9297C92.8568 35.7526 92.3958 35.5964 91.75 35.4609C91.1042 35.3255 90.5651 35.1536 90.1328 34.9453C89.1849 34.487 88.7109 33.8229 88.7109 32.9531C88.7109 32.224 89.0182 31.6146 89.6328 31.125C90.2474 30.6354 91.0286 30.3906 91.9766 30.3906C92.987 30.3906 93.8021 30.6406 94.4219 31.1406C95.0469 31.6406 95.3594 32.2891 95.3594 33.0859H93.4609C93.4609 32.7214 93.3255 32.4193 93.0547 32.1797C92.7839 31.9349 92.4245 31.8125 91.9766 31.8125C91.5599 31.8125 91.2188 31.9089 90.9531 32.1016C90.6927 32.2943 90.5625 32.5521 90.5625 32.875C90.5625 33.1667 90.6849 33.3932 90.9297 33.5547C91.1745 33.7161 91.6693 33.8802 92.4141 34.0469C93.1589 34.2083 93.7422 34.4036 94.1641 34.6328C94.5911 34.8568 94.9062 35.1276 95.1094 35.4453C95.3177 35.763 95.4219 36.1484 95.4219 36.6016C95.4219 37.362 95.1068 37.9792 94.4766 38.4531C93.8464 38.9219 93.0208 39.1562 92 39.1562C91.3073 39.1562 90.6901 39.0312 90.1484 38.7812C89.6068 38.5312 89.1849 38.1875 88.8828 37.75C88.5807 37.3125 88.4297 36.8411 88.4297 36.3359H90.2734C90.2995 36.7839 90.4688 37.1302 90.7812 37.375C91.0938 37.6146 91.5078 37.7344 92.0234 37.7344C92.5234 37.7344 92.9036 37.6406 93.1641 37.4531C93.4245 37.2604 93.5547 37.0104 93.5547 36.7031Z" fill="black"/>
</svg>
